<svg width="24" height="25" viewBox="0 0 24 25" fill="none" xmlns="http://www.w3.org/2000/svg">
<path d="M21.75 1.06259H2.25C1.80756 1.05808 1.3814 1.22928 1.06504 1.53862C0.74867 1.84795 0.56794 2.27016 0.5625 2.71259V22.2913C0.568923 22.7331 0.750087 23.1544 1.06634 23.4629C1.3826 23.7714 1.8082 23.9421 2.25 23.9376H21.75C22.1925 23.9411 22.6183 23.7693 22.9345 23.4598C23.2507 23.1503 23.4316 22.7282 23.4375 22.2857V2.70696C23.4296 2.26583 23.2479 1.84564 22.9319 1.53772C22.6159 1.22981 22.1912 1.05906 21.75 1.06259Z" fill="#641E1F"/>
<path d="M3.94874 9.63696H7.34437V20.5626H3.94874V9.63696ZM5.64749 4.19946C6.03695 4.19946 6.41767 4.31498 6.74147 4.53139C7.06527 4.7478 7.3176 5.05539 7.46656 5.41524C7.61551 5.77509 7.65439 6.17104 7.57827 6.55299C7.50216 6.93494 7.31447 7.28573 7.03894 7.56099C6.76342 7.83625 6.41245 8.02361 6.03043 8.09936C5.6484 8.17512 5.25249 8.13586 4.89278 7.98656C4.53307 7.83726 4.22573 7.58463 4.00962 7.26063C3.79352 6.93662 3.67837 6.5558 3.67874 6.16634C3.67924 5.64452 3.88688 5.14424 4.25604 4.77543C4.6252 4.40663 5.12567 4.19946 5.64749 4.19946ZM9.47437 9.63696H12.7294V11.137H12.7744C13.2281 10.2782 14.3344 9.37259 15.9862 9.37259C19.425 9.36509 20.0625 11.6282 20.0625 14.5626V20.5626H16.6669V15.247C16.6669 13.9813 16.6444 12.352 14.9025 12.352C13.1606 12.352 12.8644 13.732 12.8644 15.1645V20.5626H9.47437V9.63696Z" fill="white"/>
</svg>
