<svg width="56" height="55" viewBox="0 0 56 55" fill="none" xmlns="http://www.w3.org/2000/svg">
<g clip-path="url(#clip0_110_19)">
<path d="M46.7032 0.157349H9.2985C4.16419 0.157349 0.00201416 4.31953 0.00201416 9.45383V45.4586C0.00201416 50.5929 4.16419 54.7551 9.2985 54.7551H46.7032C51.8375 54.7551 55.9997 50.5929 55.9997 45.4586V9.45383C55.9997 4.31953 51.8375 0.157349 46.7032 0.157349Z" fill="#49021F"/>
<path d="M20.3373 14.4404V38.3694C20.3373 38.6201 20.2246 38.7452 19.9991 38.7452H15.4537C15.2531 38.7452 15.1529 38.6198 15.1533 38.3694V14.4404C15.1533 14.2403 15.266 14.1401 15.4913 14.1399H20.0367C20.0749 14.1345 20.1139 14.1375 20.1508 14.1486C20.1878 14.1598 20.2219 14.1789 20.2507 14.2045C20.2795 14.2302 20.3024 14.2618 20.3178 14.2973C20.3332 14.3327 20.3406 14.371 20.3397 14.4096L20.3373 14.4404ZM34.0274 39.1183L33.7855 39.1208C32.0565 39.1471 30.3433 38.7878 28.7706 38.069C27.3054 37.3909 26.0807 36.284 25.2583 34.8947C24.4273 33.5146 24.0018 31.7945 23.9817 29.7346L23.981 29.5793C23.967 27.8552 24.4076 26.1578 25.2585 24.6583C26.1114 23.1718 27.3554 21.9475 28.8553 21.1184L28.9773 21.0519C30.6047 20.1505 32.5708 19.6996 34.875 19.6996L34.9236 19.6999L35.0314 19.7023L35.1535 19.7071L35.2897 19.7141L35.44 19.7235L35.6043 19.7355L35.9755 19.7659L36.077 19.7747V12.3747C36.077 12.1997 36.1522 12.1115 36.3023 12.1115H41.0356C41.0662 12.1071 41.0974 12.1099 41.1268 12.1197C41.1561 12.1295 41.1828 12.1459 41.2046 12.1678C41.2265 12.1897 41.243 12.2163 41.2527 12.2457C41.2625 12.275 41.2653 12.3062 41.2609 12.3368V34.5379C41.2625 35.0017 41.2813 35.4654 41.3174 35.9278L41.3528 36.4121L41.3841 36.8629L41.4112 37.2801C41.4158 37.3581 41.3968 37.4357 41.3566 37.5028C41.3164 37.5698 41.2569 37.6232 41.1859 37.6558C39.9648 38.1651 38.6929 38.5428 37.3918 38.7826C36.2817 38.9875 35.1564 39.0998 34.0276 39.1183M36.0772 34.4627V24.2074C35.8742 24.1525 35.6669 24.1148 35.4575 24.0948C35.2016 24.069 34.9445 24.0565 34.6873 24.0572C33.7756 24.0482 32.8748 24.254 32.0578 24.6583C31.262 25.0539 30.5824 25.6493 30.0857 26.3863C29.5721 27.1375 29.3153 28.1268 29.3155 29.354C29.2972 30.1728 29.4309 30.9879 29.7099 31.7579C29.9369 32.3785 30.2958 32.9425 30.7618 33.411C31.2079 33.8419 31.748 34.1634 32.3396 34.35C32.9644 34.5523 33.6174 34.6539 34.2741 34.6508C34.6245 34.6508 34.95 34.6381 35.2508 34.6129C35.4907 34.5949 35.7285 34.5554 35.9613 34.4948L36.0772 34.4627Z" fill="#FF3366"/>
</g>
<defs>
<clipPath id="clip0_110_19">
<rect width="56" height="54.6852" fill="white" transform="translate(0 0.157349)"/>
</clipPath>
</defs>
</svg>
