<svg width="56" height="55" viewBox="0 0 56 55" fill="none" xmlns="http://www.w3.org/2000/svg">
<g clip-path="url(#clip0_110_28)">
<path d="M46.7032 0.157349H9.2985C4.16419 0.157349 0.00201416 4.31953 0.00201416 9.45383V45.4586C0.00201416 50.5929 4.16419 54.7551 9.2985 54.7551H46.7032C51.8375 54.7551 55.9997 50.5929 55.9997 45.4586V9.45383C55.9997 4.31953 51.8375 0.157349 46.7032 0.157349Z" fill="#001E36"/>
<path d="M29.4094 38.7452H14.6087C14.358 38.7452 14.2329 38.6074 14.2331 38.3318V14.4783C14.2265 14.4324 14.2307 14.3856 14.2454 14.3416C14.2601 14.2975 14.2848 14.2575 14.3176 14.2247C14.3503 14.1919 14.3903 14.1672 14.4343 14.1525C14.4783 14.1378 14.5252 14.1336 14.5711 14.1401H19.1541C19.1899 14.1351 19.2263 14.1384 19.2605 14.1499C19.2947 14.1613 19.3258 14.1806 19.3513 14.2061C19.3768 14.2316 19.396 14.2627 19.4074 14.2969C19.4188 14.3312 19.4221 14.3676 19.4171 14.4033V34.0123H30.1981C30.4234 34.0123 30.5112 34.125 30.4613 34.3503L29.7849 38.4072C29.7834 38.4626 29.769 38.5169 29.7429 38.5658C29.7168 38.6146 29.6798 38.6568 29.6347 38.689C29.565 38.7252 29.4879 38.7445 29.4094 38.7454M33.128 20.0755H37.2226C37.4509 20.0776 37.6504 20.2308 37.7108 20.4512C37.8003 20.6158 37.8637 20.7932 37.8989 20.9771C37.9512 21.2188 37.9886 21.4634 38.0114 21.7097C38.0361 21.9726 38.0485 22.2543 38.049 22.5549C38.7512 21.7372 39.598 21.0559 40.547 20.5451C41.6131 19.9686 42.8101 19.6775 44.0219 19.6999C44.0678 19.6933 44.1147 19.6976 44.1587 19.7122C44.2027 19.7269 44.2426 19.7517 44.2754 19.7845C44.3082 19.8173 44.3329 19.8573 44.3476 19.9013C44.3622 19.9453 44.3664 19.9921 44.3599 20.038V24.5835C44.3599 24.7589 44.2348 24.8464 43.9843 24.8464C42.4711 24.7527 40.9574 25.0232 39.5703 25.6352C39.0989 25.8391 38.6715 26.1325 38.3119 26.4992V38.4075C38.3119 38.6328 38.2117 38.7454 38.0114 38.7454H33.4659C33.4149 38.7527 33.3629 38.7481 33.314 38.7318C33.2651 38.7155 33.2206 38.688 33.1842 38.6516C33.1477 38.6151 33.1203 38.5707 33.104 38.5218C33.0877 38.4729 33.083 38.4209 33.0903 38.3698V25.4473C33.0903 25.1327 33.0884 24.8077 33.0842 24.4724L33.0766 23.9618C33.075 23.8754 33.0735 23.7884 33.0715 23.7006C33.062 23.2439 33.049 22.7872 33.0326 22.3307L33.0151 21.8788C32.9985 21.3627 32.9484 20.8482 32.865 20.3386C32.8562 20.3045 32.8559 20.2689 32.864 20.2346C32.8721 20.2004 32.8885 20.1687 32.9117 20.1422C32.9348 20.1158 32.9641 20.0954 32.997 20.0828C33.0298 20.0703 33.0653 20.0659 33.1002 20.0702L33.128 20.0755Z" fill="#31A8FF"/>
</g>
<defs>
<clipPath id="clip0_110_28">
<rect width="56" height="54.6852" fill="white" transform="translate(0 0.157349)"/>
</clipPath>
</defs>
</svg>
