<svg width="56" height="55" viewBox="0 0 56 55" fill="none" xmlns="http://www.w3.org/2000/svg">
<g clip-path="url(#clip0_110_22)">
<path d="M46.7032 0.157349H9.2985C4.16419 0.157349 0.00201416 4.31953 0.00201416 9.45383V45.4586C0.00201416 50.5929 4.16419 54.7551 9.2985 54.7551H46.7032C51.8375 54.7551 55.9997 50.5929 55.9997 45.4586V9.45383C55.9997 4.31953 51.8375 0.157349 46.7032 0.157349Z" fill="#001E36"/>
<path d="M12.6103 38.4446V14.4405C12.6103 14.2655 12.6855 14.1775 12.8358 14.1775L13.0736 14.1769L13.48 14.1725L14.0448 14.1613L15.9369 14.1213L17.9657 14.0837C18.6793 14.0714 19.3867 14.0649 20.0879 14.0649C21.991 14.0649 23.5937 14.3029 24.8963 14.7786C26.0713 15.1761 27.1429 15.8305 28.0331 16.6944C28.7877 17.4432 29.3708 18.3468 29.7423 19.3429C30.0937 20.3122 30.2718 21.3357 30.2684 22.3667C30.2684 24.3706 29.8049 26.0234 28.8783 27.3254C27.972 28.5955 26.7079 29.5669 25.2472 30.1156L25.1218 30.1616C23.5966 30.7305 21.9074 30.9361 20.0549 30.949L19.7671 30.9499L19.3399 30.9477L19.1244 30.9447L18.8842 30.939L18.7394 30.9333L18.6515 30.9287L18.4351 30.9208L18.1707 30.9154L17.7726 30.9125L17.684 30.9123V38.407C17.6906 38.453 17.6864 38.4998 17.6717 38.5438C17.657 38.5879 17.6323 38.6279 17.5995 38.6607C17.5667 38.6935 17.5267 38.7182 17.4826 38.7329C17.4386 38.7476 17.3918 38.7518 17.3458 38.7452H12.8734C12.6978 38.7452 12.6103 38.6454 12.6103 38.4446ZM17.6842 18.6853V26.5145C17.984 26.5387 18.2846 26.5513 18.5854 26.5521H19.8252C20.68 26.5493 21.5298 26.422 22.348 26.1744L22.5112 26.1234C23.2555 25.9023 23.9205 25.472 24.4271 24.8836C24.8978 24.3284 25.1417 23.5635 25.1586 22.5886L25.1597 22.4794C25.1794 21.7527 24.9904 21.0357 24.6148 20.4134C24.2201 19.8115 23.6495 19.3459 22.9808 19.0797C22.1076 18.7403 21.1748 18.5807 20.2384 18.6103L19.762 18.6116L19.4615 18.6143L19.1747 18.618L18.77 18.6258L18.4747 18.6342L18.3214 18.6398L18.1164 18.6495L17.9419 18.6602L17.8424 18.6681L17.7564 18.6764L17.7185 18.6807L17.6842 18.6853ZM44.7928 25.0909C44.1375 24.7542 43.4424 24.5012 42.7239 24.338L42.5577 24.3022C41.7673 24.1208 40.9603 24.0209 40.1496 24.004L39.947 24.0016C39.4717 23.9887 38.9971 24.0457 38.5383 24.1707C38.2462 24.2356 37.9866 24.402 37.8055 24.6401C37.6831 24.8307 37.618 25.0524 37.6178 25.2788C37.6247 25.4985 37.7039 25.7097 37.8432 25.8797C38.0425 26.1129 38.2822 26.3083 38.5508 26.4565L38.6322 26.4996C39.1677 26.788 39.7196 27.0451 40.285 27.2696C41.5457 27.6917 42.7503 28.2656 43.8723 28.9788C44.6368 29.4613 45.2694 30.1261 45.7132 30.9136C46.0864 31.6591 46.2733 32.484 46.2579 33.3176C46.2804 34.4184 45.9658 35.4999 45.3562 36.4169C44.7037 37.3476 43.7975 38.0712 42.7454 38.5015C41.6436 38.9858 40.2904 39.2358 38.6862 39.2522L38.5195 39.2531C37.525 39.2632 36.5319 39.1761 35.5542 38.9932L35.3451 38.9526C34.522 38.8016 33.7208 38.5492 32.9598 38.2012C32.8833 38.1617 32.8186 38.1026 32.7725 38.03C32.7263 37.9574 32.7002 37.8738 32.6968 37.7878V33.6934C32.6923 33.6536 32.6987 33.6134 32.7153 33.577C32.7318 33.5406 32.758 33.5094 32.7909 33.4867C32.8231 33.4684 32.8602 33.4605 32.8971 33.4638C32.934 33.4672 32.969 33.4817 32.9974 33.5055C33.8961 34.0354 34.872 34.422 35.8898 34.6512C36.787 34.8762 37.7073 34.996 38.6322 35.0082C39.5084 35.0082 40.1533 34.8954 40.5667 34.67C40.7534 34.5846 40.9113 34.4469 41.0213 34.2735C41.1313 34.1002 41.1887 33.8987 41.1866 33.6934C41.1866 33.3683 40.9987 33.0551 40.6231 32.7543C40.4656 32.6283 40.2397 32.4912 39.9457 32.3431L39.805 32.274L39.655 32.2033L39.5762 32.1674L39.4113 32.0944C39.3827 32.0819 39.354 32.0695 39.3253 32.0572L39.146 31.9819L39.0526 31.9437L38.8588 31.866L38.7581 31.8266L38.5497 31.7464L38.3316 31.6648C37.152 31.2542 36.0336 30.6856 35.007 29.9743C34.2727 29.4637 33.6681 28.7883 33.2415 28.0022C32.8721 27.2619 32.6853 26.444 32.6968 25.6168C32.6947 24.6229 32.9677 23.6478 33.4856 22.7994C34.0762 21.8654 34.9241 21.1217 35.9274 20.6584C37.0292 20.1078 38.4064 19.8322 40.0594 19.8318C41.0276 19.824 41.9948 19.8931 42.9521 20.0385C43.6452 20.1264 44.3229 20.3097 44.9658 20.5831C45.0693 20.6129 45.1526 20.6892 45.1911 20.7898C45.2167 20.8815 45.2292 20.9762 45.2287 21.0716V24.8656C45.2342 24.9553 45.1911 25.0413 45.1161 25.0909C45.0658 25.1159 45.0105 25.1289 44.9544 25.1289C44.8983 25.1289 44.843 25.1159 44.7928 25.0909Z" fill="#31A8FF"/>
</g>
<defs>
<clipPath id="clip0_110_22">
<rect width="56" height="54.6852" fill="white" transform="translate(0 0.157349)"/>
</clipPath>
</defs>
</svg>
