<svg width="56" height="55" viewBox="0 0 56 55" fill="none" xmlns="http://www.w3.org/2000/svg">
<g clip-path="url(#clip0_110_25)">
<path d="M46.7032 0.157349H9.2985C4.16419 0.157349 0.00201416 4.31953 0.00201416 9.45383V45.4586C0.00201416 50.5929 4.16419 54.7551 9.2985 54.7551H46.7032C51.8375 54.7551 55.9997 50.5929 55.9997 45.4586V9.45383C55.9997 4.31953 51.8375 0.157349 46.7032 0.157349Z" fill="#330000"/>
<path d="M27.1369 32.9225H18.4594L16.6938 38.407C16.6697 38.5071 16.6116 38.5956 16.5293 38.6573C16.447 38.719 16.3457 38.7501 16.2429 38.7452H11.8478C11.5973 38.7452 11.5096 38.6074 11.5848 38.3318L19.0979 16.6944C19.173 16.4691 19.2482 16.2125 19.3232 15.9244C19.4217 15.423 19.472 14.9138 19.4735 14.4031C19.4684 14.3673 19.4717 14.3309 19.4831 14.2967C19.4945 14.2624 19.5137 14.2313 19.5392 14.2058C19.5647 14.1802 19.5958 14.161 19.63 14.1496C19.6643 14.1381 19.7007 14.1348 19.7364 14.1399H25.7094C25.8844 14.1399 25.9846 14.2027 26.0099 14.328L34.5371 38.3694C34.6124 38.6201 34.5371 38.7454 34.3118 38.7452H29.4282C29.3443 38.7545 29.2599 38.7329 29.1908 38.6846C29.1217 38.6362 29.0726 38.5643 29.0526 38.4823L27.1369 32.9225ZM19.8117 28.1894H25.747L25.6623 27.9101L25.5265 27.4678L25.4296 27.1572L25.275 26.6681L24.9462 25.6385L24.657 24.7257L23.9061 22.3479C23.7192 21.7569 23.5398 21.1635 23.368 20.5678L23.2306 20.0844L23.07 19.5128L22.8251 18.6269L22.7791 18.46H22.7417C22.5538 19.3617 22.3249 20.2544 22.0557 21.1352L21.4984 22.928L21.1917 23.9185L20.8822 24.9212C20.8262 25.1023 20.7706 25.2815 20.7149 25.4584L20.5486 25.983L20.3833 26.4953L20.2188 26.9949L20.0551 27.482C20.0009 27.6423 19.9466 27.8005 19.8926 27.9567L19.8117 28.1894ZM39.608 18.1219C39.2248 18.1373 38.8428 18.0716 38.4867 17.9292C38.1307 17.7868 37.8088 17.5708 37.5419 17.2955C37.2758 17.0081 37.0691 16.6711 36.9337 16.3036C36.7983 15.9361 36.7369 15.5455 36.753 15.1542C36.7393 14.7668 36.8076 14.381 36.9532 14.0218C37.0989 13.6626 37.3186 13.3381 37.5982 13.0696C38.1374 12.552 38.8555 12.2623 39.6029 12.2609L39.683 12.2618C40.5846 12.2618 41.2923 12.5309 41.8056 13.0694C42.0648 13.3492 42.2661 13.6774 42.3983 14.0351C42.5304 14.3929 42.5907 14.7731 42.5756 15.1542C42.5914 15.5471 42.528 15.9391 42.3893 16.3069C42.2505 16.6748 42.0393 17.0111 41.768 17.2957C41.4942 17.5656 41.1691 17.778 40.8119 17.9204C40.4547 18.0628 40.0727 18.1322 39.6882 18.1247L39.608 18.1219ZM37.0159 38.3694V20.4134C37.0159 20.1881 37.1156 20.0752 37.3164 20.0752H41.9371C42.1373 20.0752 42.2374 20.1879 42.2377 20.4134V38.3694C42.2377 38.6201 42.1375 38.7454 41.9371 38.7452H37.3541C37.1406 38.7452 37.0281 38.6328 37.017 38.4079L37.0159 38.3694Z" fill="#FF9A00"/>
</g>
<defs>
<clipPath id="clip0_110_25">
<rect width="56" height="54.6852" fill="white" transform="translate(0 0.157349)"/>
</clipPath>
</defs>
</svg>
